<?xml version="1.0" encoding="UTF-8"?>
<svg xmlns="http://www.w3.org/2000/svg" width="128" height="128" viewBox="0 0 128 128">
  <defs>
    <filter id="softShadow" x="-30%" y="-30%" width="160%" height="170%">
      <feDropShadow dx="0" dy="5" stdDeviation="5" flood-color="#000000" flood-opacity="0.55"/>
    </filter>
    <filter id="hardText" x="-20%" y="-30%" width="140%" height="170%">
      <feDropShadow dx="0" dy="4" stdDeviation="0.5" flood-color="#2a1210" flood-opacity="0.95"/>
      <feDropShadow dx="0" dy="0" stdDeviation="3" flood-color="#fff0b0" flood-opacity="0.22"/>
    </filter>
    <linearGradient id="steel" x1="0" x2="0" y1="0" y2="1">
      <stop offset="0" stop-color="#e7e5df"/>
      <stop offset="0.42" stop-color="#8b9298"/>
      <stop offset="0.62" stop-color="#f7f0d5"/>
      <stop offset="1" stop-color="#5a5151"/>
    </linearGradient>
    <linearGradient id="darkPanel" x1="0" x2="0" y1="0" y2="1">
      <stop offset="0" stop-color="#4b5154" stop-opacity="0.95"/>
      <stop offset="0.44" stop-color="#191a1e" stop-opacity="0.96"/>
      <stop offset="1" stop-color="#09090d" stop-opacity="0.96"/>
    </linearGradient>
    <linearGradient id="gold" x1="0" x2="1" y1="0" y2="1">
      <stop offset="0" stop-color="#fff4a2"/>
      <stop offset="0.55" stop-color="#e3a23a"/>
      <stop offset="1" stop-color="#77471f"/>
    </linearGradient>
    <linearGradient id="danger" x1="0" x2="1" y1="0" y2="1">
      <stop offset="0" stop-color="#ff8a62"/>
      <stop offset="0.52" stop-color="#e13c38"/>
      <stop offset="1" stop-color="#641d25"/>
    </linearGradient>
    <linearGradient id="power" x1="0" x2="1" y1="0" y2="1">
      <stop offset="0" stop-color="#88ddff"/>
      <stop offset="0.55" stop-color="#386bd3"/>
      <stop offset="1" stop-color="#17255f"/>
    </linearGradient>
    <linearGradient id="greenGlow" x1="0" x2="1">
      <stop offset="0" stop-color="#e8ffd7" stop-opacity="0"/>
      <stop offset="0.2" stop-color="#aaff65" stop-opacity="0.9"/>
      <stop offset="0.68" stop-color="#38d16f" stop-opacity="0.95"/>
      <stop offset="1" stop-color="#0e593e" stop-opacity="0"/>
    </linearGradient>
    
  </defs>
  
    <path d="M64 4 L75 44 L111 21 L88 57 L124 65 L87 73 L111 109 L75 85 L64 124 L53 85 L17 109 L40 73 L4 65 L41 57 L17 21 L53 44 Z" fill="rgba(255,78,56,0.78)" stroke="#ffe380" stroke-width="4" stroke-linejoin="round"/>
    <circle cx="64" cy="65" r="24" fill="#fff1a7"/>
  
</svg>