<?xml version="1.0" encoding="UTF-8"?>
<svg xmlns="http://www.w3.org/2000/svg" width="120" height="58" viewBox="0 0 120 58">
  <defs>
    <filter id="softShadow" x="-30%" y="-30%" width="160%" height="170%">
      <feDropShadow dx="0" dy="5" stdDeviation="5" flood-color="#000000" flood-opacity="0.55"/>
    </filter>
    <filter id="hardText" x="-20%" y="-30%" width="140%" height="170%">
      <feDropShadow dx="0" dy="4" stdDeviation="0.5" flood-color="#2a1210" flood-opacity="0.95"/>
      <feDropShadow dx="0" dy="0" stdDeviation="3" flood-color="#fff0b0" flood-opacity="0.22"/>
    </filter>
    <linearGradient id="steel" x1="0" x2="0" y1="0" y2="1">
      <stop offset="0" stop-color="#e7e5df"/>
      <stop offset="0.42" stop-color="#8b9298"/>
      <stop offset="0.62" stop-color="#f7f0d5"/>
      <stop offset="1" stop-color="#5a5151"/>
    </linearGradient>
    <linearGradient id="darkPanel" x1="0" x2="0" y1="0" y2="1">
      <stop offset="0" stop-color="#4b5154" stop-opacity="0.95"/>
      <stop offset="0.44" stop-color="#191a1e" stop-opacity="0.96"/>
      <stop offset="1" stop-color="#09090d" stop-opacity="0.96"/>
    </linearGradient>
    <linearGradient id="gold" x1="0" x2="1" y1="0" y2="1">
      <stop offset="0" stop-color="#fff4a2"/>
      <stop offset="0.55" stop-color="#e3a23a"/>
      <stop offset="1" stop-color="#77471f"/>
    </linearGradient>
    <linearGradient id="danger" x1="0" x2="1" y1="0" y2="1">
      <stop offset="0" stop-color="#ff8a62"/>
      <stop offset="0.52" stop-color="#e13c38"/>
      <stop offset="1" stop-color="#641d25"/>
    </linearGradient>
    <linearGradient id="power" x1="0" x2="1" y1="0" y2="1">
      <stop offset="0" stop-color="#88ddff"/>
      <stop offset="0.55" stop-color="#386bd3"/>
      <stop offset="1" stop-color="#17255f"/>
    </linearGradient>
    <linearGradient id="greenGlow" x1="0" x2="1">
      <stop offset="0" stop-color="#e8ffd7" stop-opacity="0"/>
      <stop offset="0.2" stop-color="#aaff65" stop-opacity="0.9"/>
      <stop offset="0.68" stop-color="#38d16f" stop-opacity="0.95"/>
      <stop offset="1" stop-color="#0e593e" stop-opacity="0"/>
    </linearGradient>
    
  </defs>
  
    <path d="M6 30 C36 2 73 7 113 28 C72 52 33 55 6 30 Z" fill="rgba(255,82,54,0.62)"/>
    <path d="M34 30 C51 9 78 15 102 29 C78 44 51 48 34 30 Z" fill="#ffd24c"/>
    <circle cx="88" cy="29" r="9" fill="#fff3ac"/>
  
</svg>