<?xml version="1.0" encoding="UTF-8"?>
<svg xmlns="http://www.w3.org/2000/svg" width="128" height="192" viewBox="0 0 128 192">
  <defs>
    <filter id="softShadow" x="-30%" y="-30%" width="160%" height="170%">
      <feDropShadow dx="0" dy="5" stdDeviation="5" flood-color="#000000" flood-opacity="0.55"/>
    </filter>
    <filter id="hardText" x="-20%" y="-30%" width="140%" height="170%">
      <feDropShadow dx="0" dy="4" stdDeviation="0.5" flood-color="#2a1210" flood-opacity="0.95"/>
      <feDropShadow dx="0" dy="0" stdDeviation="3" flood-color="#fff0b0" flood-opacity="0.22"/>
    </filter>
    <linearGradient id="steel" x1="0" x2="0" y1="0" y2="1">
      <stop offset="0" stop-color="#e7e5df"/>
      <stop offset="0.42" stop-color="#8b9298"/>
      <stop offset="0.62" stop-color="#f7f0d5"/>
      <stop offset="1" stop-color="#5a5151"/>
    </linearGradient>
    <linearGradient id="darkPanel" x1="0" x2="0" y1="0" y2="1">
      <stop offset="0" stop-color="#4b5154" stop-opacity="0.95"/>
      <stop offset="0.44" stop-color="#191a1e" stop-opacity="0.96"/>
      <stop offset="1" stop-color="#09090d" stop-opacity="0.96"/>
    </linearGradient>
    <linearGradient id="gold" x1="0" x2="1" y1="0" y2="1">
      <stop offset="0" stop-color="#fff4a2"/>
      <stop offset="0.55" stop-color="#e3a23a"/>
      <stop offset="1" stop-color="#77471f"/>
    </linearGradient>
    <linearGradient id="danger" x1="0" x2="1" y1="0" y2="1">
      <stop offset="0" stop-color="#ff8a62"/>
      <stop offset="0.52" stop-color="#e13c38"/>
      <stop offset="1" stop-color="#641d25"/>
    </linearGradient>
    <linearGradient id="power" x1="0" x2="1" y1="0" y2="1">
      <stop offset="0" stop-color="#88ddff"/>
      <stop offset="0.55" stop-color="#386bd3"/>
      <stop offset="1" stop-color="#17255f"/>
    </linearGradient>
    <linearGradient id="greenGlow" x1="0" x2="1">
      <stop offset="0" stop-color="#e8ffd7" stop-opacity="0"/>
      <stop offset="0.2" stop-color="#aaff65" stop-opacity="0.9"/>
      <stop offset="0.68" stop-color="#38d16f" stop-opacity="0.95"/>
      <stop offset="1" stop-color="#0e593e" stop-opacity="0"/>
    </linearGradient>
    
  </defs>
  
    <mask id="cardBodyCutout">
      <rect x="7" y="7" width="114" height="178" rx="7" fill="#fff"/>
      <rect x="17" y="23" width="94" height="81" rx="8" fill="#000"/>
    </mask>
    <g filter="url(#softShadow)">
      <rect x="7" y="7" width="114" height="178" rx="7" fill="rgba(21,18,22,0.84)" mask="url(#cardBodyCutout)"/>
      <rect x="7" y="7" width="114" height="178" rx="7" fill="none" stroke="#1e1410" stroke-width="5"/>
      <rect x="13" y="13" width="102" height="166" rx="4" fill="none" stroke="url(#gold)" stroke-width="2"/>
      <path d="M15 31 L113 22 L105 43 L21 49 Z" fill="rgba(255,236,148,0.2)"/>
      <rect x="17" y="23" width="94" height="81" rx="8" fill="rgba(0,0,0,0.02)" stroke="#e8ded0" stroke-width="3"/>
      <rect x="23" y="29" width="82" height="69" rx="5" fill="none" stroke="rgba(255,255,255,0.32)" stroke-width="1"/>
      <rect x="17" y="127" width="94" height="26" rx="4" fill="rgba(14,16,19,0.84)" stroke="#d6c08a" stroke-width="1.5"/>
      
    <g filter="url(#softShadow)">
      <rect x="17" y="143" width="24" height="24" rx="4.32" fill="url(#power)" stroke="#140d0f" stroke-width="3"/>
      <rect x="21" y="147" width="16" height="16" rx="3.12" fill="none" stroke="rgba(255,255,255,0.45)" stroke-width="1.5"/>
      <text x="29" y="159.32" text-anchor="middle" font-family="Arial Black, Arial" font-size="13.200000000000001" fill="#fff7dc" stroke="#1a0d0d" stroke-width="2" paint-order="stroke fill">7</text>
    </g>
      
    <g filter="url(#softShadow)">
      <rect x="45" y="143" width="24" height="24" rx="4.32" fill="url(#danger)" stroke="#140d0f" stroke-width="3"/>
      <rect x="49" y="147" width="16" height="16" rx="3.12" fill="none" stroke="rgba(255,255,255,0.45)" stroke-width="1.5"/>
      <text x="57" y="159.32" text-anchor="middle" font-family="Arial Black, Arial" font-size="13.200000000000001" fill="#fff7dc" stroke="#1a0d0d" stroke-width="2" paint-order="stroke fill">5</text>
    </g>
      <rect x="17" y="185" width="94" height="-3.68" rx="4" fill="rgba(0,0,0,0.55)" stroke="rgba(255,255,255,0.2)" stroke-width="1"/>
      <rect x="17" y="180.76" width="94" height="-3.68" rx="4" fill="rgba(0,0,0,0.55)" stroke="rgba(255,255,255,0.2)" stroke-width="1"/>
      <path d="M13 163 L113 157" stroke="rgba(255,235,163,0.28)" stroke-width="2"/>
    </g>
    
</svg>