<?xml version="1.0" encoding="UTF-8"?>
<svg xmlns="http://www.w3.org/2000/svg" width="192" height="288" viewBox="0 0 192 288">
  <defs>
    <filter id="softShadow" x="-30%" y="-30%" width="160%" height="170%">
      <feDropShadow dx="0" dy="5" stdDeviation="5" flood-color="#000000" flood-opacity="0.55"/>
    </filter>
    <filter id="hardText" x="-20%" y="-30%" width="140%" height="170%">
      <feDropShadow dx="0" dy="4" stdDeviation="0.5" flood-color="#2a1210" flood-opacity="0.95"/>
      <feDropShadow dx="0" dy="0" stdDeviation="3" flood-color="#fff0b0" flood-opacity="0.22"/>
    </filter>
    <linearGradient id="steel" x1="0" x2="0" y1="0" y2="1">
      <stop offset="0" stop-color="#e7e5df"/>
      <stop offset="0.42" stop-color="#8b9298"/>
      <stop offset="0.62" stop-color="#f7f0d5"/>
      <stop offset="1" stop-color="#5a5151"/>
    </linearGradient>
    <linearGradient id="darkPanel" x1="0" x2="0" y1="0" y2="1">
      <stop offset="0" stop-color="#4b5154" stop-opacity="0.95"/>
      <stop offset="0.44" stop-color="#191a1e" stop-opacity="0.96"/>
      <stop offset="1" stop-color="#09090d" stop-opacity="0.96"/>
    </linearGradient>
    <linearGradient id="gold" x1="0" x2="1" y1="0" y2="1">
      <stop offset="0" stop-color="#fff4a2"/>
      <stop offset="0.55" stop-color="#e3a23a"/>
      <stop offset="1" stop-color="#77471f"/>
    </linearGradient>
    <linearGradient id="danger" x1="0" x2="1" y1="0" y2="1">
      <stop offset="0" stop-color="#ff8a62"/>
      <stop offset="0.52" stop-color="#e13c38"/>
      <stop offset="1" stop-color="#641d25"/>
    </linearGradient>
    <linearGradient id="power" x1="0" x2="1" y1="0" y2="1">
      <stop offset="0" stop-color="#88ddff"/>
      <stop offset="0.55" stop-color="#386bd3"/>
      <stop offset="1" stop-color="#17255f"/>
    </linearGradient>
    <linearGradient id="greenGlow" x1="0" x2="1">
      <stop offset="0" stop-color="#e8ffd7" stop-opacity="0"/>
      <stop offset="0.2" stop-color="#aaff65" stop-opacity="0.9"/>
      <stop offset="0.68" stop-color="#38d16f" stop-opacity="0.95"/>
      <stop offset="1" stop-color="#0e593e" stop-opacity="0"/>
    </linearGradient>
    
  </defs>
  
    <mask id="cardBodyCutout">
      <rect x="11" y="11" width="170" height="266" rx="11" fill="#fff"/>
      <rect x="21" y="35" width="150" height="121" rx="8" fill="#000"/>
    </mask>
    <g filter="url(#softShadow)">
      <rect x="11" y="11" width="170" height="266" rx="11" fill="rgba(21,18,22,0.84)" mask="url(#cardBodyCutout)"/>
      <rect x="11" y="11" width="170" height="266" rx="11" fill="none" stroke="#1e1410" stroke-width="5"/>
      <rect x="17" y="17" width="158" height="254" rx="8" fill="none" stroke="url(#gold)" stroke-width="2"/>
      <path d="M19 35 L173 26 L165 47 L25 53 Z" fill="rgba(255,236,148,0.2)"/>
      <rect x="21" y="35" width="150" height="121" rx="8" fill="rgba(0,0,0,0.02)" stroke="#e8ded0" stroke-width="3"/>
      <rect x="27" y="41" width="138" height="109" rx="5" fill="none" stroke="rgba(255,255,255,0.32)" stroke-width="1"/>
      <rect x="21" y="179" width="150" height="26" rx="4" fill="rgba(14,16,19,0.84)" stroke="#d6c08a" stroke-width="1.5"/>
      
    <g filter="url(#softShadow)">
      <rect x="21" y="195" width="36" height="36" rx="6.4799999999999995" fill="url(#power)" stroke="#140d0f" stroke-width="3"/>
      <rect x="25" y="199" width="28" height="28" rx="4.68" fill="none" stroke="rgba(255,255,255,0.45)" stroke-width="1.5"/>
      <text x="39" y="219.48" text-anchor="middle" font-family="Arial Black, Arial" font-size="19.8" fill="#fff7dc" stroke="#1a0d0d" stroke-width="2" paint-order="stroke fill">7</text>
    </g>
      
    <g filter="url(#softShadow)">
      <rect x="63" y="195" width="36" height="36" rx="6.4799999999999995" fill="url(#danger)" stroke="#140d0f" stroke-width="3"/>
      <rect x="67" y="199" width="28" height="28" rx="4.68" fill="none" stroke="rgba(255,255,255,0.45)" stroke-width="1.5"/>
      <text x="81" y="219.48" text-anchor="middle" font-family="Arial Black, Arial" font-size="19.8" fill="#fff7dc" stroke="#1a0d0d" stroke-width="2" paint-order="stroke fill">5</text>
    </g>
      <rect x="21" y="237" width="150" height="14.72" rx="4" fill="rgba(0,0,0,0.55)" stroke="rgba(255,255,255,0.2)" stroke-width="1"/>
      <rect x="21" y="253.96" width="150" height="14.72" rx="4" fill="rgba(0,0,0,0.55)" stroke="rgba(255,255,255,0.2)" stroke-width="1"/>
      <path d="M17 255 L173 249" stroke="rgba(255,235,163,0.28)" stroke-width="2"/>
    </g>
    
</svg>